<svg xmlns="http://www.w3.org/2000/svg" xmlns:xlink="http://www.w3.org/1999/xlink" version="1.1" x="0px" y="0px" viewBox="0 0 65 81.25" enable-background="new 0 0 65 65" xml:space="preserve"><g><polygon points="47.3,23.9 42.7,23.9 42.7,25.4 42.9,25.4 47,25.4 47.3,25.4  "/><polygon points="42.7,49.2 42.7,50.7 47.3,50.7 47.3,49.2 47,49.2 42.9,49.2  "/><rect x="43.9" y="27.4" width="2.1" height="19.8"/><path d="M40.7,50.7v-2.5c0-0.6,0.4-1,1-1h0.3V27.4h-0.3c-0.6,0-1-0.4-1-1v-2.5H24.3v2.5c0,0.6-0.4,1-1,1h-0.3v19.8h0.3   c0.6,0,1,0.4,1,1v2.5h1.4V32.6c0-0.6,0.4-1,1-1h11.5c0.6,0,1,0.4,1,1v18.1H40.7z"/><rect x="27.7" y="33.6" width="9.5" height="17.1"/><polygon points="61.9,20.4 58.3,11.9 38.9,11.9 48.9,20.4  "/><polygon points="17.4,21.9 23.3,21.9 41.7,21.9 47.6,21.9 39.7,15.2 35.6,11.7 35.6,11.7 32.5,9 29.4,11.7 29.4,11.7 25.3,15.2     "/><path d="M62.4,50.7V22.4H51.1c0.1,0.2,0.2,0.5,0.1,0.8c-0.1,0.4-0.5,0.7-0.9,0.7h-1v2.5c0,0.6-0.4,1-1,1H48v19.8h0.3   c0.6,0,1,0.4,1,1v2.5H62.4z M53.1,28.6c0-0.6,0.4-1,1-1h4.7c0.6,0,1,0.4,1,1V34c0,0.6-0.4,1-1,1h-4.7c-0.6,0-1-0.4-1-1V28.6z    M53.1,40.6c0-0.6,0.4-1,1-1h4.7c0.6,0,1,0.4,1,1V46c0,0.6-0.4,1-1,1h-4.7c-0.6,0-1-0.4-1-1V40.6z"/><polygon points="17.7,49.2 17.7,50.7 22.3,50.7 22.3,49.2 22.1,49.2 18,49.2  "/><polygon points="26.1,11.9 6.7,11.9 3.1,20.4 16.1,20.4  "/><rect x="19" y="27.4" width="2.1" height="19.8"/><path d="M15.7,48.2c0-0.6,0.4-1,1-1H17V27.4h-0.3c-0.6,0-1-0.4-1-1v-2.5h-1c-0.4,0-0.8-0.3-0.9-0.7c-0.1-0.3-0.1-0.6,0.1-0.8H2.6   v28.3h13.1V48.2z M11.9,46c0,0.6-0.4,1-1,1H6.3c-0.6,0-1-0.4-1-1v-5.3c0-0.6,0.4-1,1-1h4.7c0.6,0,1,0.4,1,1V46z M11.9,34   c0,0.6-0.4,1-1,1H6.3c-0.6,0-1-0.4-1-1v-5.3c0-0.6,0.4-1,1-1h4.7c0.6,0,1,0.4,1,1V34z"/><polygon points="63.4,52.7 48.3,52.7 41.7,52.7 38.3,52.7 26.7,52.7 23.3,52.7 16.7,52.7 1.6,52.7 0.5,52.7 0.5,56 64.5,56    64.5,52.7  "/><polygon points="22.3,23.9 17.7,23.9 17.7,25.4 18,25.4 22.1,25.4 22.3,25.4  "/></g><text x="0" y="80" fill="#000000" font-size="5px" font-weight="bold" font-family="'Helvetica Neue', Helvetica, Arial-Unicode, Arial, Sans-serif">Created by Dinosoft Labs</text><text x="0" y="85" fill="#000000" font-size="5px" font-weight="bold" font-family="'Helvetica Neue', Helvetica, Arial-Unicode, Arial, Sans-serif">from the Noun Project</text></svg>