<svg xmlns="http://www.w3.org/2000/svg" xmlns:xlink="http://www.w3.org/1999/xlink" version="1.1" x="0px" y="0px" viewBox="0 0 48 60" enable-background="new 0 0 48 48" xml:space="preserve"><path fill="#000000" d="M24.3,0.6c-0.2-0.1-0.4-0.1-0.6,0L1,13.4c-0.3,0.1-0.4,0.4-0.4,0.7v4.6c0,0.3,0.3,0.6,0.6,0.6h5.6  c0.3,0,0.6,0.3,0.6,0.6v21.3c0,0.3-0.3,0.6-0.6,0.6H1.2c-0.3,0-0.6,0.3-0.6,0.6v4.4c0,0.3,0.3,0.6,0.6,0.6h45.7  c0.3,0,0.6-0.3,0.6-0.6v-4.4c0-0.3-0.3-0.6-0.6-0.6h-5.6c-0.3,0-0.6-0.3-0.6-0.6V19.9c0-0.3,0.3-0.6,0.6-0.6h5.6  c0.3,0,0.6-0.3,0.6-0.6v-4.6c0-0.3-0.2-0.6-0.4-0.7L24.3,0.6z M14.3,19.3h5.9c0.3,0,0.6,0.3,0.6,0.6v21.3c0,0.3-0.3,0.6-0.6,0.6  h-5.9c-0.3,0-0.6-0.3-0.6-0.6V19.9C13.7,19.6,14,19.3,14.3,19.3z M33.7,41.8h-5.9c-0.3,0-0.6-0.3-0.6-0.6V19.9  c0-0.3,0.3-0.6,0.6-0.6h5.9c0.3,0,0.6,0.3,0.6,0.6v21.3C34.3,41.5,34,41.8,33.7,41.8z"/><text x="0" y="63" fill="#000000" font-size="5px" font-weight="bold" font-family="'Helvetica Neue', Helvetica, Arial-Unicode, Arial, Sans-serif">Created by Creative Stall</text><text x="0" y="68" fill="#000000" font-size="5px" font-weight="bold" font-family="'Helvetica Neue', Helvetica, Arial-Unicode, Arial, Sans-serif">from the Noun Project</text></svg>