<svg xmlns="http://www.w3.org/2000/svg" xmlns:xlink="http://www.w3.org/1999/xlink" version="1.1" x="0px" y="0px" viewBox="0 0 100 125" style="enable-background:new 0 0 100 100;" xml:space="preserve"><path d="M33.6,21.7c-8.6,0-15.7,7-15.7,15.7s7,15.7,15.7,15.7s15.7-7,15.7-15.7S42.3,21.7,33.6,21.7z"/><path d="M48.1,58.7h-29c-7.4,0-13.7,6-13.7,13.7v12.7h56.3V72.4C61.8,64.8,55.7,58.7,48.1,58.7z"/><path d="M76.9,51.3L76.9,51.3l-22.3-0.1l7.8-7c-2.6-3.2-3.9-7.2-3.9-11.4c0-4.9,1.9-9.5,5.4-13s8.1-5.4,13-5.4l0,0  c10.2,0,18.4,8.3,18.4,18.5C95.3,43,87.1,51.3,76.9,51.3z M62,48.4h14.9c8.6,0,15.6-7,15.6-15.6h1.4h-1.4c0-8.6-7-15.6-15.6-15.6  l0,0c-4.1,0-8.1,1.6-11,4.5c-3,2.9-4.6,6.8-4.6,11c0,3.9,1.5,7.7,4.1,10.6l1,1.1L62,48.4z"/><rect x="75.6" y="24.9" width="3.3" height="10.8"/><rect x="75.6" y="38.1" width="3.3" height="2.9"/><text x="0" y="115" fill="#000000" font-size="5px" font-weight="bold" font-family="'Helvetica Neue', Helvetica, Arial-Unicode, Arial, Sans-serif">Created by Aneeque Ahmed</text><text x="0" y="120" fill="#000000" font-size="5px" font-weight="bold" font-family="'Helvetica Neue', Helvetica, Arial-Unicode, Arial, Sans-serif">from the Noun Project</text></svg>