<svg xmlns="http://www.w3.org/2000/svg" xmlns:xlink="http://www.w3.org/1999/xlink" version="1.1" x="0px" y="0px" viewBox="0 0 100 125" enable-background="new 0 0 100 100" xml:space="preserve"><path d="M52.125,14.948c0,1.174-0.952,2.125-2.125,2.125s-2.125-0.951-2.125-2.125s0.952-2.125,2.125-2.125  S52.125,13.774,52.125,14.948z M18.55,34.893L8.35,24.693v65.355l10.2-10.2V34.893z M9.672,23.371h27.221l8.685-12.224  c1.154-1.624,2.725-2.519,4.422-2.519c0,0,0,0,0,0c1.698,0,3.269,0.895,4.422,2.519l8.684,12.224h27.22l-10.2,10.199H19.872  L9.672,23.371z M39.188,23.371h21.626L52.899,12.23c-0.793-1.116-1.823-1.731-2.898-1.731c-1.076,0-2.105,0.615-2.898,1.731  L39.188,23.371z M81.45,34.893v44.956l10.2,10.2V24.693L81.45,34.893z M19.872,81.171l-10.2,10.2h80.655l-10.2-10.2H19.872z   M50,47.564 M56.715,48.689L44.794,65.541l-6.715-9.492L25.604,73.684h13.431h11.52h23.841L56.715,48.689z M31.437,41.581  c-2.348,0-4.25,1.902-4.25,4.25s1.902,4.25,4.25,4.25c2.347,0,4.25-1.902,4.25-4.25S33.784,41.581,31.437,41.581z"/><text x="0" y="115" fill="#000000" font-size="5px" font-weight="bold" font-family="'Helvetica Neue', Helvetica, Arial-Unicode, Arial, Sans-serif">Created by Alexander Wiefel</text><text x="0" y="120" fill="#000000" font-size="5px" font-weight="bold" font-family="'Helvetica Neue', Helvetica, Arial-Unicode, Arial, Sans-serif">from the Noun Project</text></svg>