<svg xmlns="http://www.w3.org/2000/svg" xmlns:xlink="http://www.w3.org/1999/xlink" version="1.1" x="0px" y="0px" viewBox="0 0 100 125" enable-background="new 0 0 100 100" xml:space="preserve"><path d="M83.652,59.671c-0.204-4.271-2.032-7.769-5.017-9.595c-9.555-5.854-8.711-17.634-3.635-26.712  c3.861-6.909,2.232-14.384-3.964-18.179C65.421,1.744,59.1,0,52.252,0C35.607,0,18.977,10.271,8.85,26.806  c-6.966,11.373-10.039,25.332-8.432,38.3c1.639,13.221,7.991,24.119,17.428,29.9C23.257,98.318,29.353,100,35.964,100  c0.001,0,0,0,0.001,0c16.507,0,33.806-10.828,44.069-27.585C82.563,68.287,83.848,63.76,83.652,59.671z M55.313,12.375  c3.763,0,6.813,3.05,6.813,6.813c0,3.762-3.05,6.813-6.813,6.813c-3.762,0-6.813-3.051-6.813-6.813  C48.5,15.425,51.551,12.375,55.313,12.375z M18.688,76c-3.762,0-6.813-3.051-6.813-6.813s3.051-6.813,6.813-6.813  c3.763,0,6.813,3.051,6.813,6.813S22.45,76,18.688,76z M19.563,53.125c-3.762,0-6.813-3.051-6.813-6.813  c0-3.762,3.051-6.813,6.813-6.813c3.763,0,6.813,3.05,6.813,6.813C26.375,50.074,23.325,53.125,19.563,53.125z M26.25,27.313  c0-3.762,3.051-6.813,6.813-6.813c3.763,0,6.813,3.05,6.813,6.813s-3.05,6.813-6.813,6.813C29.301,34.125,26.25,31.075,26.25,27.313  z M38.063,88.875c-3.762,0-6.813-3.051-6.813-6.813s3.051-6.813,6.813-6.813c3.763,0,6.813,3.051,6.813,6.813  S41.825,88.875,38.063,88.875z M61.258,65.67c-5.619,4.354-13.066,4.152-16.632-0.451S42.724,53.354,48.344,49  c5.619-4.354,13.066-4.151,16.633,0.453C68.542,54.056,66.878,61.317,61.258,65.67z"/><g><path d="M86.168,18.949C86.168,15.746,88.766,0,91.969,0c3.204,0,5.801,15.746,5.801,18.949c0,3.203-2.597,5.801-5.801,5.801   C88.766,24.75,86.168,22.152,86.168,18.949z"/><path d="M96.156,39.313c0,21.919-1.875,60.688-4.188,60.688s-4.188-38.769-4.188-60.688s1.875-18.688,4.188-18.688   S96.156,17.394,96.156,39.313z"/></g><text x="0" y="115" fill="#000000" font-size="5px" font-weight="bold" font-family="'Helvetica Neue', Helvetica, Arial-Unicode, Arial, Sans-serif">Created by LAFS</text><text x="0" y="120" fill="#000000" font-size="5px" font-weight="bold" font-family="'Helvetica Neue', Helvetica, Arial-Unicode, Arial, Sans-serif">from the Noun Project</text></svg>