<svg xmlns="http://www.w3.org/2000/svg" xmlns:xlink="http://www.w3.org/1999/xlink" version="1.1" x="0px" y="0px" viewBox="0 0 48 60" style="enable-background:new 0 0 48 48;" xml:space="preserve"><style type="text/css">
	.st0{fill:#231F20;}
</style><path class="st0" d="M44.8,0.1H3.2C1.4,0.1,0,1.3,0,2.8v25.6c0,1.5,1.4,2.7,3.2,2.7h9.3l0,0.2v0v0l0.1,1l0,0l1.2,10l0,0l0.1,0.8v0  c0,0,0,0,0,0l0.5,4c0.1,0.5,0.5,0.9,1,0.9c0,0,0.1,0,0.1,0c0.5-0.1,0.9-0.6,0.9-1.1l-0.2-2l2.9,2.8c0.1,0.1,0.2,0.2,0.3,0.2  c0.1,0,0.1,0,0.2,0c0.1,0,0.1,0,0.2,0h0c0,0,0,0,0,0H20c0,0,0,0,0,0c0.1,0,0.2,0,0.3-0.1c0,0,0.1,0,0.1,0c0.1-0.1,0.2-0.1,0.3-0.2  L24,44l3.3,3.6c0.1,0.1,0.2,0.2,0.3,0.2c0.1,0.1,0.3,0.1,0.4,0.1h0.2h0h0c0,0,0.1,0,0.1,0c0.1,0,0.2,0,0.2,0c0.1,0,0.2-0.1,0.3-0.2  l2.9-2.8l-0.2,2c-0.1,0.5,0.3,1,0.9,1.1c0,0,0.1,0,0.1,0c0.5,0,0.9-0.4,1-0.9l0.5-4v0v0l0.1-0.8l1.2-10l0,0l0.1-1v0v0l0-0.2h9.3  c1.8,0,3.2-1.2,3.2-2.7V2.8C48,1.3,46.6,0.1,44.8,0.1z M13.9,26.2h0.9h1.8l-0.3,0.4l-1.8,2.6h-0.3L13.9,26.2z M28.2,45.6l-1.3-1.5  l-1.5-1.6l3.3-3.5l2.8,3.5l-1.3,1.2L28.2,45.6z M19.8,45.6L18,43.8l-1.4-1.4l2.8-3.5l0.4,0.5l2.8,3.1l-1.5,1.6L19.8,45.6z   M15.3,31.6l0.3-0.5h6.7l0.5,0.6l-1.2,1.5L19.3,36l-0.6-0.7L15.3,31.6z M32.7,31.6l-3.4,3.7L28.7,36L26.4,33l-1.1-1.4l0.5-0.6h6.7  L32.7,31.6z M27.4,37.4L24,41.1l-3.4-3.6l3.4-4.2l0.6,0.8L27.4,37.4z M27.3,29.1l2-2.5l1.7,2.5H27.3z M20.6,29.1H17l1.7-2.5  L20.6,29.1z M24.8,29.1h-1.6l-2.4-3h6.3L24.8,29.1z M18,37.5l-2.4,3l-0.8-6.4l1.5,1.6L18,37.5z M32.4,40.5l-2.4-3l3.1-3.4L32.4,40.5  z M33.7,29.1h-0.3l-1.8-2.6l-0.3-0.4h1.8h0.9L33.7,29.1z M32.2,24.2h-2.7h-0.1l0,0l0,0h-0.2H18.7h-0.2l0,0l0,0h-0.1h-2.7v-9.3h16.4  V24.2z M46,28.4c0,0.3-0.5,0.7-1.2,0.7h-9l0.4-3h1.2c0.6,0,1-0.4,1-1c0-0.6-0.4-1-1-1h-2.1h-1V13.8c0-0.6-0.4-1-1-1H14.8  c-0.6,0-1,0.4-1,1v10.3h-1h-2.1c-0.6,0-1,0.4-1,1c0,0.6,0.4,1,1,1h1.2l0.4,3h-9c-0.7,0-1.2-0.4-1.2-0.7V2.8c0-0.3,0.5-0.7,1.2-0.7  h41.5c0.7,0,1.2,0.4,1.2,0.7V28.4z"/><text x="0" y="63" fill="#000000" font-size="5px" font-weight="bold" font-family="'Helvetica Neue', Helvetica, Arial-Unicode, Arial, Sans-serif">Created by Creative Stall</text><text x="0" y="68" fill="#000000" font-size="5px" font-weight="bold" font-family="'Helvetica Neue', Helvetica, Arial-Unicode, Arial, Sans-serif">from the Noun Project</text></svg>