<svg xmlns="http://www.w3.org/2000/svg" data-name="Layer 1" viewBox="0 0 128 160" x="0px" y="0px"><defs><style>.cls-1{fill:none;stroke:#000;stroke-linecap:round;stroke-linejoin:round;stroke-width:4px;}</style></defs><title>Artboard 14</title><path class="cls-1" d="M70,3l2,7a4,4,0,0,1-4,4H60a4,4,0,0,1-4-4l2-7"/><line class="cls-1" x1="56" y1="2" x2="72" y2="2"/><path class="cls-1" d="M58,14,56,30s-2,15-7,19a13.84,13.84,0,0,0-5,10v61a6,6,0,0,0,6,6H78a6,6,0,0,0,6-6V59a13.84,13.84,0,0,0-5-10c-5-4-7-19-7-19L70,14"/><path d="M64,73A10,10,0,1,0,74,83,10,10,0,0,0,64,73Zm4.87,15.52L64,86.28l-4.87,2.24,1.19-5.1L57,79h4.84L64,75.27,66.15,79H71l-3.3,4.42Z"/><path d="M79,49c-5-4-7-19-7-19l-.62-5H56.63L56,30s-2,15-7,19a13.84,13.84,0,0,0-5,10v61a6,6,0,0,0,6,6H78a6,6,0,0,0,6-6V59A13.84,13.84,0,0,0,79,49Zm3,65H46v-4H82Zm0-33H77.85c0,.1,0,.2,0,.3s0,.31.05.47c0,.41.06.82.06,1.23,0,.09,0,.19,0,.28A13.94,13.94,0,0,1,77.41,87H82v4H75.47a14,14,0,0,1-22.95,0H46V87h4.59A13.94,13.94,0,0,1,50,83c0-.41,0-.82.06-1.23,0-.16,0-.31.05-.47s0-.2,0-.3H46V77h5.37a14,14,0,0,1,25.26,0H82Z"/><text x="0" y="143" fill="#000000" font-size="5px" font-weight="bold" font-family="'Helvetica Neue', Helvetica, Arial-Unicode, Arial, Sans-serif">Created by Juraj Sedlák</text><text x="0" y="148" fill="#000000" font-size="5px" font-weight="bold" font-family="'Helvetica Neue', Helvetica, Arial-Unicode, Arial, Sans-serif">from the Noun Project</text></svg>