<svg xmlns="http://www.w3.org/2000/svg" xmlns:xlink="http://www.w3.org/1999/xlink" version="1.1" x="0px" y="0px" viewBox="0 0 57.905 101.85375" enable-background="new 0 0 57.905 81.483" xml:space="preserve"><polyline stroke="#000000" stroke-width="2" points="49.905,30.611 49.905,68.743 1,68.743 1,1 49.905,1 49.905,34.427 "/><line fill="none" stroke="#000000" stroke-width="2" x1="56.905" y1="7" x2="56.905" y2="42.427"/><polyline fill="none" stroke="#000000" stroke-width="2" points="56.905,37.611 56.905,75.743 7,75.743 0.777,69.036 "/><polyline fill="none" stroke="#000000" stroke-width="0.25" points="51.905,2.611 51.905,70.743 5,70.743 "/><polyline fill="none" stroke="#000000" stroke-width="0.25" points="52.905,3.611 52.905,71.743 6,71.743 "/><polyline fill="none" stroke="#000000" stroke-width="0.25" points="53.905,4.611 53.905,72.743 7,72.743 "/><polyline fill="none" stroke="#000000" stroke-width="0.25" points="54.905,5.611 54.905,73.743 8,73.743 "/><polygon points="17.215,81.483 13.802,79.078 10.385,81.483 10.385,72.659 17.215,72.659 "/><text x="0" y="96.483" fill="#000000" font-size="5px" font-weight="bold" font-family="'Helvetica Neue', Helvetica, Arial-Unicode, Arial, Sans-serif">Created by 8ties®</text><text x="0" y="101.483" fill="#000000" font-size="5px" font-weight="bold" font-family="'Helvetica Neue', Helvetica, Arial-Unicode, Arial, Sans-serif">from the Noun Project</text></svg>