<svg xmlns="http://www.w3.org/2000/svg" xmlns:xlink="http://www.w3.org/1999/xlink" version="1.1" x="0px" y="0px" viewBox="0 0 100 125" enable-background="new 0 0 100 100" xml:space="preserve"><g><path fill="#000000" d="M94.882,82.018h-2.085H5.798H4.771c-0.951,0-1.728,0.773-1.728,1.735c0,0.952,0.776,1.727,1.728,1.727   h1.025h87h2.085c0.96,0,1.737-0.774,1.737-1.727C96.619,82.791,95.842,82.018,94.882,82.018z"/><path fill="#000000" d="M70.506,24.31l1.6,7.219l7.851,35.241l1.612,7.208l0.994,4.515c0.021,0.04,0.039,0.062,0.039,0.093   c0.01,0.053,0,0.062,0.024,0.124c0.313,1.435,2.194,1.015,2.194,1.015l-0.146-0.03c0.114-0.032,0.178-0.054,0.178-0.054   l-0.031,0.084l10.254-2.289c1.583-0.357,1.601-1.489,1.519-2.011l-1.025-4.563l-1.6-7.221L86.12,28.414l-1.612-7.223l-1.232-5.516   c-0.23-0.617-0.785-1.392-2.148-1.086l-10.462,2.333c0,0-1.718,0.388-1.3,2.303L70.506,24.31z M84.249,78.061l-0.987-4.457   l10.612-2.355l1.008,4.45L84.249,78.061z M92.266,64.024l-10.613,2.358l-7.848-35.239l10.619-2.368L92.266,64.024z M81.633,16.261   l1.181,5.306l-10.61,2.365l-1.184-5.304L81.633,16.261z"/><path fill="#000000" d="M8.392,79.778h4.669h7.399h36.105h7.397h5.644c0.657-0.085,1.524-0.474,1.524-1.864V67.187   c0,0-0.008-1.758-1.954-1.758h-5.214h-7.397H20.46h-7.399H8.445c-0.041,0-0.053,0.01-0.096,0.01c-0.051,0-0.072-0.01-0.135-0.01   c-1.455,0-1.455,1.936-1.455,1.936l0.073-0.146c-0.01,0.104-0.01,0.199-0.01,0.199l-0.063-0.053V77.86   C6.761,79.485,7.869,79.735,8.392,79.778z M63.964,67.165h5.423v10.874h-5.423V67.165z M20.46,67.165h36.105v10.874H20.46V67.165z    M8.508,67.165h4.553v10.874H8.508V67.165z"/><path fill="#000000" d="M8.392,63.691h4.669h7.399h36.105h7.397h5.644c0.657-0.094,1.524-0.472,1.524-1.854V51.101   c0,0-0.008-1.756-1.954-1.756h-5.214h-7.397H20.46h-7.399H8.445c-0.041,0-0.053,0.009-0.096,0.009   c-0.051,0-0.072-0.009-0.135-0.009c-1.455,0-1.455,1.922-1.455,1.922l0.073-0.126c-0.01,0.104-0.01,0.18-0.01,0.18l-0.063-0.054   v10.518C6.761,63.399,7.869,63.659,8.392,63.691z M63.964,51.08h5.423v10.873h-5.423V51.08z M20.46,51.08h36.105v10.873H20.46   V51.08z M8.508,51.08h4.553v10.873H8.508V51.08z"/><path fill="#000000" d="M8.392,47.595h4.669h7.399h36.105h7.397h5.644c0.657-0.094,1.524-0.449,1.524-1.853V35.015   c0,0-0.008-1.769-1.954-1.769h-5.214h-7.397H20.46h-7.399H8.445c-0.041,0-0.053,0.022-0.096,0.022   c-0.051,0-0.072-0.022-0.135-0.022c-1.455,0-1.455,1.936-1.455,1.936l0.073-0.126c-0.01,0.104-0.01,0.179-0.01,0.179l-0.063-0.052   v10.507C6.761,47.314,7.869,47.573,8.392,47.595z M63.964,34.985h5.423V45.87h-5.423V34.985z M20.46,34.985h36.105V45.87H20.46   V34.985z M8.508,34.985h4.553V45.87H8.508V34.985z"/></g><text x="0" y="115" fill="#000000" font-size="5px" font-weight="bold" font-family="'Helvetica Neue', Helvetica, Arial-Unicode, Arial, Sans-serif">Created by Iconic</text><text x="0" y="120" fill="#000000" font-size="5px" font-weight="bold" font-family="'Helvetica Neue', Helvetica, Arial-Unicode, Arial, Sans-serif">from the Noun Project</text></svg>