<svg xmlns="http://www.w3.org/2000/svg" xmlns:xlink="http://www.w3.org/1999/xlink" version="1.1" x="0px" y="0px" viewBox="0 0 512 640" enable-background="new 0 0 512 512" xml:space="preserve"><path d="M377.48,265.269c-0.424-3.962-1.681-12.836-11.425-20.993c-1.885-8.818-9.47-18.957-14.416-24.51  c0.84,0.012,1.821,0.059,2.858,0.136c2.756,0.206,12.48-0.21,17.148-1.51c4.672-1.297,5.088-12.722,2.646-14.181  c-2.438-1.455-14.023-1.817-17.141-1.559c-3.121,0.263-3.376,2.559-3.891,3.183c-0.521,0.624-0.467,6.532-0.467,6.532  c0,1.714-3.486,0.21-5.457-0.104c0,0-0.056-0.012-0.087-0.016c-4.24-13.394-13.623-39.099-24.239-43.473  c-13.144-5.423-120.881-5.423-134.03,0c-10.615,4.374-19.995,30.079-24.234,43.473c-0.036,0.004-0.052,0.014-0.052,0.014  c-2.006,0.316-5.492,1.82-5.492,0.106c0,0,0.051-5.908-0.463-6.532c-0.526-0.625-0.777-2.92-3.902-3.183  c-3.109-0.259-14.684,0.104-17.13,1.559c-2.445,1.458-2.037,12.883,2.646,14.181c4.676,1.3,14.381,1.716,17.137,1.51  c1.045-0.077,2.026-0.124,2.866-0.136c-4.954,5.554-12.531,15.692-14.416,24.51c-9.752,8.157-11.009,17.031-11.433,20.993  c-0.667,6.248-2.175,36.019,3.871,45.739c0.62,0.993,2.418,1.876,5.037,2.67v30.041c0,1.975,1.378,3.573,3.098,3.573h30.108  c1.708,0,3.09-1.599,3.09-3.573v-25.46c31.148,1.943,69.497,1.959,76.282,1.943c6.792,0.016,45.153,0,76.29-1.943v25.46  c0,1.975,1.378,3.573,3.098,3.573h30.101c1.716,0,3.094-1.599,3.094-3.573v-30.041c2.622-0.794,4.417-1.677,5.041-2.67  C379.671,301.287,378.163,271.517,377.48,265.269z M190.289,176.123c7.84-0.624,26.445-1.598,66.122-1.598  c39.292,0,57.536,0.958,65.266,1.576c6.415,4.766,14.533,24.421,19.39,40.072c-20.219,0.833-83.537,1.2-85.072,1.209  c-1.531-0.01-64.838-0.377-85.062-1.209C175.786,200.548,183.874,180.926,190.289,176.123z M295.368,284.622  c0,1.703-1.386,3.09-3.098,3.09h-72.548c-1.7,0-3.09-1.387-3.09-3.09v-15.117c0-1.71,1.39-3.092,3.09-3.092h72.548  c1.712,0,3.098,1.382,3.098,3.092V284.622z M343.496,291.893c-8.363,0-15.154-6.785-15.154-15.16  c0-8.378,6.791-15.166,15.154-15.166c8.375,0,15.164,6.788,15.164,15.166C358.66,285.107,351.871,291.893,343.496,291.893z   M170.86,291.893c-8.363,0-15.154-6.785-15.154-15.16c0-8.378,6.791-15.166,15.154-15.166c8.375,0,15.164,6.788,15.164,15.166  C186.024,285.107,179.235,291.893,170.86,291.893z"/><text x="0" y="527" fill="#000000" font-size="5px" font-weight="bold" font-family="'Helvetica Neue', Helvetica, Arial-Unicode, Arial, Sans-serif">Created by Gujixsol</text><text x="0" y="532" fill="#000000" font-size="5px" font-weight="bold" font-family="'Helvetica Neue', Helvetica, Arial-Unicode, Arial, Sans-serif">from the Noun Project</text></svg>