<svg xmlns="http://www.w3.org/2000/svg" xmlns:xlink="http://www.w3.org/1999/xlink" version="1.1" x="0px" y="0px" viewBox="0 0 100 125" enable-background="new 0 0 100 100" xml:space="preserve"><path fill-rule="evenodd" clip-rule="evenodd" d="M73.5,75.5l-23,6l-23-6l-24,6l10-55l19-3l3.653,0.608  c-0.481,0.797-0.885,1.663-1.242,2.567L33.5,26.5l-4,47l20,5V66.281c0.626,0.777,1,1.219,1,1.219s0.375-0.441,1-1.219V78.5l20-5  l-4-47l-1.4,0.175c-0.355-0.907-0.771-1.768-1.253-2.566L68.5,23.5l19,3l10,55L73.5,75.5z M30.5,26.5l-15,2l-9,50l20-5L30.5,26.5z   M85.5,28.5l-15-2l4,47l20,5L85.5,28.5z M50.5,64.5c0,0-15-21.869-15-30s7.094-15,15-15s15,6.869,15,15S50.5,64.5,50.5,64.5z   M50.5,29.5c-2.872,0-5.2,2.328-5.2,5.199c0,2.872,2.328,5.2,5.2,5.2c2.872,0,5.2-2.328,5.2-5.2C55.7,31.828,53.372,29.5,50.5,29.5z  "/><text x="0" y="115" fill="#000000" font-size="5px" font-weight="bold" font-family="'Helvetica Neue', Helvetica, Arial-Unicode, Arial, Sans-serif">Created by Anusha Narvekar</text><text x="0" y="120" fill="#000000" font-size="5px" font-weight="bold" font-family="'Helvetica Neue', Helvetica, Arial-Unicode, Arial, Sans-serif">from the Noun Project</text></svg>