<svg xmlns="http://www.w3.org/2000/svg" xmlns:xlink="http://www.w3.org/1999/xlink" version="1.1" x="0px" y="0px" viewBox="0 0 24 30" enable-background="new 0 0 24 24" xml:space="preserve"><path d="M17,14v-4l-4-2.4V6l2,0V4l-2,0V2h-2v2L9,4v2l2,0v1.6L7,10v4l-3,2v6h6v-2c0-1.1,0.9-2,2-2c1.1,0,2,0.9,2,2v2h6v-6L17,14z   M12,13c-0.6,0-1-0.4-1-1s0.4-1,1-1s1,0.4,1,1S12.5,13,12,13z"/><g><path d="M12,12"/></g><text x="0" y="39" fill="#000000" font-size="5px" font-weight="bold" font-family="'Helvetica Neue', Helvetica, Arial-Unicode, Arial, Sans-serif">Created by Creative Stall</text><text x="0" y="44" fill="#000000" font-size="5px" font-weight="bold" font-family="'Helvetica Neue', Helvetica, Arial-Unicode, Arial, Sans-serif">from the Noun Project</text></svg>