<svg xmlns="http://www.w3.org/2000/svg" xmlns:xlink="http://www.w3.org/1999/xlink" version="1.1" x="0px" y="0px" viewBox="0 0 100 125" enable-background="new 0 0 100 100" xml:space="preserve"><path fill="#000000" d="M45.2,7.3C45.2,6,44.3,5,43,5c-1.2,0-2.3,1.1-2.3,2.4v17c0,1.2-1,2.2-2.2,2.1c-1.2,0-2.1-1.1-2.1-2.2v-17  C36.5,6,35.4,5,34.1,5c-1.2,0-2.2,1.1-2.2,2.4v17c0,1.2-1,2.2-2.2,2.1c-1.2,0-2.1-1.1-2.1-2.2v-17C27.7,6,26.6,5,25.4,5  s-2.2,1.1-2.2,2.4v16.9c0,0.7,0,7.5,4.9,12.6c0.1,0.1,0.3,0.3,0.4,0.4c2.7,3,3.9,7.1,3.6,11.2c0,0-3.2,41-3.2,41.3  c0,2.9,2.4,5.3,5.3,5.3s5.3-2.4,5.3-5.3c0-0.3-3.2-41.3-3.2-41.3c-0.3-4.1,0.9-8.1,3.6-11.2c0.1-0.1,0.3-0.3,0.4-0.4  c4.9-5.2,4.9-12,4.9-12.6V7.3z"/><path fill="#000000" d="M76.8,89.7V7.2l0,0c0-2.1-2.7-3-4-1.3C70.4,9,56.2,38.7,68.9,52c0.9,1,1.4,2.3,1.2,3.7  c-0.8,7.9-3.6,33.7-3.6,34c0,2.8,2.2,5.1,5,5.2l0,0h0.1h0.1l0,0C74.6,94.8,76.8,92.5,76.8,89.7L76.8,89.7L76.8,89.7z"/><text x="0" y="115" fill="#000000" font-size="5px" font-weight="bold" font-family="'Helvetica Neue', Helvetica, Arial-Unicode, Arial, Sans-serif">Created by Marek Polakovic</text><text x="0" y="120" fill="#000000" font-size="5px" font-weight="bold" font-family="'Helvetica Neue', Helvetica, Arial-Unicode, Arial, Sans-serif">from the Noun Project</text></svg>