<svg xmlns="http://www.w3.org/2000/svg" xmlns:xlink="http://www.w3.org/1999/xlink" version="1.1" x="0px" y="0px" viewBox="0 0 150 187.5" style="enable-background:new 0 0 150 150;" xml:space="preserve"><g><path d="M135,46.1c0-0.1,0-0.2,0-0.2c0,0,0,0,0,0c0,0,0-0.1,0-0.1c0-0.1,0-0.1-0.1-0.2c0-0.1-0.1-0.1-0.1-0.2c0,0-0.1-0.1-0.1-0.2   c0-0.1-0.1-0.1-0.2-0.1c0,0-0.1-0.1-0.1-0.1c0,0-0.1-0.1-0.2-0.1c0,0-0.1-0.1-0.2-0.1c-0.1,0-0.1-0.1-0.2-0.1c0,0-0.1,0-0.1,0   l-58-18.9c0,0,0,0,0,0c-0.1,0-0.1,0-0.2,0c-0.1,0-0.1,0-0.2,0c-0.1,0-0.1,0-0.2,0c-0.1,0-0.1,0-0.2,0c0,0-0.1,0-0.2,0   c-0.1,0-0.2,0-0.2,0.1c0,0,0,0,0,0l-58,18.9c-0.8,0.3-1.4,1-1.4,1.9c0,0.9,0.6,1.6,1.4,1.9l18.5,6.1l39.5,12.9   c0.2,0.1,0.4,0.1,0.6,0.1c0.2,0,0.4,0,0.6-0.1l39.4-12.9l18.6-6.1v0c0.2,0,0.3-0.1,0.5-0.2c0,0,0.1-0.1,0.1-0.1   c0.1-0.1,0.3-0.2,0.4-0.4c0,0,0,0,0-0.1c0.1-0.2,0.2-0.3,0.3-0.5c0,0,0,0,0,0c0,0,0,0,0,0c0-0.1,0-0.2,0-0.2c0,0,0-0.1,0-0.2   c0-0.1,0-0.1,0-0.2c0-0.1,0-0.1,0-0.2C135,46.2,135,46.2,135,46.1z"/><path d="M115.1,58.5v30.9c0,1.1-0.9,2-2,2c-2.4,0-4.7,0.2-7.1,0.6v12.3c2.4,0.7,4.2,2.9,4.2,5.6v8.8c0,3.2-2.6,5.8-5.8,5.8h-0.8   c-3.2,0-5.8-2.6-5.8-5.8v-8.8c0-2.6,1.8-4.9,4.2-5.6V92.8c-5.4,1.5-10.6,4.1-15,7.7l-10.7,8.8c0,0,0,0,0,0c0,0-0.1,0-0.1,0.1   c-0.1,0.1-0.2,0.1-0.3,0.2c0,0-0.1,0-0.1,0.1c-0.1,0-0.2,0.1-0.3,0.1c0,0-0.1,0-0.1,0c-0.1,0-0.3,0-0.4,0s-0.3,0-0.4,0   c0,0-0.1,0-0.1,0c-0.1,0-0.2-0.1-0.3-0.1c0,0-0.1,0-0.1-0.1c-0.1,0-0.2-0.1-0.3-0.2c0,0-0.1,0-0.1-0.1c0,0,0,0,0,0L63,100.6   c-7.4-6-16.6-9.3-26.1-9.3c-1.1,0-2-0.9-2-2V58.4l39.5,12.9c0.2,0.1,0.4,0.1,0.6,0.1c0.2,0,0.4,0,0.6-0.1L115.1,58.5z"/></g><text x="0" y="165" fill="#000000" font-size="5px" font-weight="bold" font-family="'Helvetica Neue', Helvetica, Arial-Unicode, Arial, Sans-serif">Created by Symbolon</text><text x="0" y="170" fill="#000000" font-size="5px" font-weight="bold" font-family="'Helvetica Neue', Helvetica, Arial-Unicode, Arial, Sans-serif">from the Noun Project</text></svg>