<svg xmlns="http://www.w3.org/2000/svg" xmlns:xlink="http://www.w3.org/1999/xlink" version="1.1" x="0px" y="0px" viewBox="0 0 32 40" enable-background="new 0 0 32 32" xml:space="preserve"><g><path d="M5.2,15.8v13.9c0,1,0.8,1.8,1.8,1.8h5.1v-6.4c0-1,0.8-1.8,1.8-1.8h4.2c1,0,1.8,0.8,1.8,1.8v6.4H25c1,0,1.8-0.8,1.8-1.8   V15.8H5.2z"/><path d="M18.1,24.8h-4.2c-0.1,0-0.3,0.1-0.3,0.3v6.4h4.7v-6.4C18.4,25,18.2,24.8,18.1,24.8z"/><path d="M29.2,11.1L25,7.5V2.7c0-0.4-0.3-0.8-0.8-0.8c-0.4,0-0.8,0.3-0.8,0.8v3.5l-6.3-5.3c-0.6-0.5-1.7-0.5-2.3,0L2.8,11.1   c-0.6,0.5-0.8,1.3-0.5,2c0.3,0.7,0.9,1.2,1.7,1.2h24.1c0.8,0,1.4-0.5,1.7-1.2C30,12.3,29.8,11.5,29.2,11.1z"/></g><text x="0" y="47" fill="#000000" font-size="5px" font-weight="bold" font-family="'Helvetica Neue', Helvetica, Arial-Unicode, Arial, Sans-serif">Created by Creative Stall</text><text x="0" y="52" fill="#000000" font-size="5px" font-weight="bold" font-family="'Helvetica Neue', Helvetica, Arial-Unicode, Arial, Sans-serif">from the Noun Project</text></svg>