<svg xmlns:dc="http://purl.org/dc/elements/1.1/" xmlns:cc="http://creativecommons.org/ns#" xmlns:rdf="http://www.w3.org/1999/02/22-rdf-syntax-ns#" xmlns:svg="http://www.w3.org/2000/svg" xmlns="http://www.w3.org/2000/svg" xmlns:sodipodi="http://sodipodi.sourceforge.net/DTD/sodipodi-0.dtd" xmlns:inkscape="http://www.inkscape.org/namespaces/inkscape" viewBox="0 0 100 125" version="1.1" x="0px" y="0px"><g><path style="opacity:1;fill:#000000;fill-opacity:1;stroke:none;stroke-width:2;stroke-linejoin:miter;stroke-miterlimit:4;stroke-dasharray:none;stroke-opacity:1" d="m 39.481305,17.245815 c -0.342929,-0.01384 -0.762765,0.07537 -1.300781,0.261719 -6.323181,3.656981 4.624611,7.917898 0.121094,11.595703 -2.516082,2.317817 -7.421057,-5.507293 -10.230469,-1.576172 -0.441652,0.763727 -0.656101,1.290183 -0.662109,1.691406 -0.01802,1.203664 1.831863,1.274638 4.988281,3.205078 2.881253,2.201549 5.496881,2.190167 7.470703,1.046875 2.749089,3.461166 4.796875,7.052142 6.365235,10.716797 C 43.137603,52.202212 42.335162,60.66065 41.06529,69.029018 40.342,63.11846 39.4514,57.254907 36.856305,51.859096 c 1.293951,-1.865089 2.698169,-3.718149 4.208985,-5.558594 -1.836209,1.259531 -3.490149,2.604411 -5.007813,4.011719 -1.345254,-2.425111 -3.071344,-4.746945 -5.347656,-6.916016 1.232719,2.937948 2.372624,5.898366 3.349609,8.896485 -2.399888,2.556572 -4.361922,5.315411 -5.951171,8.248047 -0.900331,-1.387113 -1.907684,-2.707734 -3.029297,-3.957032 2.246727,-2.071063 3.220146,-5.781124 1.970703,-8.746093 -2.381765,-5.652004 -1.892303,-7.396193 -4.761719,-6.402344 -6.323181,3.656981 4.624611,7.919851 0.121094,11.597656 -2.516082,2.317817 -7.421057,-5.509246 -10.230469,-1.578125 -0.441652,0.763727 -0.656101,1.292137 -0.662109,1.69336 -0.01802,1.203664 1.831863,1.272685 4.988281,3.203125 2.650446,2.02519 5.082628,2.190197 6.992187,1.314453 1.478471,1.584303 2.650907,3.215232 3.591797,4.880859 -2.074736,4.374428 -3.403451,9.094462 -4.207031,14.058594 l -0.429687,0 c -1.454956,-3.683453 -2.804431,-7.419276 -7.019532,-9.722656 2.991945,2.966648 4.360565,6.308223 5.41211,9.722656 l -1.373047,0 0,8.587891 63.513672,0 0,-8.587891 -1.916016,0 C 81.607939,64.992378 82.933701,53.453011 93.34068,42.765346 86.268557,48.713544 78.826891,54.206885 77.303571,67.009487 76.898416,60.36743 75.656904,54.839779 73.645368,50.339565 76.44343,43.155639 81.001846,35.619536 89.172712,27.361049 c -6.954485,5.40394 -13.966437,10.771049 -18.63086,17.621094 -2.301842,-3.096417 -5.153048,-5.461124 -8.517578,-7.140625 3.327827,2.953899 5.512087,6.193056 6.990235,9.609375 -2.000954,3.53725 -3.37806,7.4683 -3.832032,11.982422 -0.366848,-8.296652 -4.372277,-15.077834 -8.71289,-21.71875 3.324611,7.534054 5.949103,15.069462 5.933593,22.603516 -1.628194,5.108055 -4.492697,7.693551 -7.322265,10.353515 -0.667244,-4.190371 -1.256286,-8.403462 -2.021485,-12.566406 0.629468,-0.818052 1.336568,-1.600141 2.146485,-2.333985 -0.82216,0.380109 -1.600631,0.808011 -2.345703,1.273438 -0.84228,-4.384512 -1.919218,-8.702972 -3.527344,-12.873047 1.648729,-4.115054 3.973858,-8.134056 7.449219,-11.988281 2.17785,1.150921 4.981341,1.359165 7.236328,0.226562 5.480857,-2.752846 7.25303,-2.380868 6.070312,-5.177734 -4.069926,-6.065628 -7.592968,5.141193 -11.5625,0.892578 -2.480218,-2.356154 5.002053,-7.771098 0.892578,-10.3125 -0.791441,-0.389815 -1.331689,-0.567598 -1.732422,-0.546875 -1.202193,0.06217 -1.149266,1.911493 -2.865234,5.189453 -2.216387,3.340346 -1.778457,6.192133 -0.126953,8.111328 -2.987836,3.210968 -5.206755,6.570314 -6.902344,10.03125 -1.505854,-3.154648 -3.380259,-6.207216 -5.78125,-9.111328 1.481365,-2.128469 1.969135,-5.114165 0.931641,-7.576172 -1.935184,-4.592253 -1.974911,-6.604083 -3.460938,-6.664062 z m 23.56836,2.759766 c -1.391306,-0.04507 -1.452519,2.717231 -2.111328,3.566406 -0.878412,1.132233 -2.302079,2.820764 -1.117188,3.75 1.184891,0.929236 3.572231,-1.400233 4.419922,-2.589844 0.847691,-1.189611 4.036882,-0.317378 0.714844,-3.572266 -0.83051,-0.813722 -1.442482,-1.139272 -1.90625,-1.154296 z M 33.905133,20.88644 c -0.401494,0.0099 -1.040976,0.36979 -2.125,1.337891 -0.867219,0.77448 -1.233423,1.364433 -1.279296,1.826171 -0.137617,1.385216 2.614548,1.629857 3.417968,2.34375 1.071227,0.951858 2.661894,2.483666 3.667969,1.363282 1.006076,-1.120383 -1.160493,-3.657006 -2.291015,-4.582032 -0.777235,-0.635955 -0.507338,-2.31076 -1.390626,-2.289062 z M 18.012555,44.814174 c -0.401494,0.0099 -1.040976,0.371744 -2.125,1.339844 -0.86722,0.77448 -1.233423,1.362481 -1.279296,1.824219 -0.137618,1.385216 2.614548,1.629857 3.417968,2.34375 1.071227,0.951858 2.661894,2.485618 3.667969,1.365234 1.006076,-1.120383 -1.160493,-3.657005 -2.291016,-4.582031 -0.777234,-0.635956 -0.507337,-2.312714 -1.390625,-2.291016 z m 29.835938,3.632813 c 1.133771,3.460985 1.901995,6.966989 2.466797,10.478515 -3.056825,2.672315 -5.261805,6.286432 -6.59961,10.861329 1.41318,-7.108405 2.052087,-14.326805 4.132813,-21.339844 z m -12.992188,6.46289 c 1.259696,4.347449 2.145991,8.781937 2.419922,13.361328 -0.293955,-1.84622 -1.437419,-3.328336 -2.904297,-4.671874 -0.128506,4.60437 0.366586,8.991926 1.925782,13.005859 l -2.585938,0 c -0.597218,-4.540913 -1.761308,-8.730425 -3.591797,-12.505859 1.259133,-3.099905 2.84963,-6.160863 4.736328,-9.189454 z m 36.689454,1.855469 c 0.993009,6.543125 0.903253,13.356345 2.134765,19.839844 l -5.896484,0 c 1.215053,-6.606043 1.938828,-13.112233 3.761719,-19.839844 z m -20.785157,5.210938 c 0.646051,4.9376 0.992146,9.849316 1.449219,14.628906 l -4.917969,0 c 0.844141,-5.021911 1.440553,-10.159555 3.46875,-14.628906 z m -21.68164,4.929687 c 1.151316,3.184387 1.792304,6.446433 2.492187,9.699219 l -4.65625,0 c 0.350604,-3.275005 1.081037,-6.507444 2.164063,-9.699219 z"/></g><text x="0" y="115" fill="#000000" font-size="5px" font-weight="bold" font-family="'Helvetica Neue', Helvetica, Arial-Unicode, Arial, Sans-serif">Created by Hamish</text><text x="0" y="120" fill="#000000" font-size="5px" font-weight="bold" font-family="'Helvetica Neue', Helvetica, Arial-Unicode, Arial, Sans-serif">from the Noun Project</text></svg>