<svg xmlns="http://www.w3.org/2000/svg" xmlns:xlink="http://www.w3.org/1999/xlink" version="1.1" x="0px" y="0px" viewBox="0 0 100 125" enable-background="new 0 0 100 100" xml:space="preserve"><g><g><path d="M31.862,41.593V32.13v-3.352c0-0.958-0.784-1.741-1.742-1.741h-1.611c-0.957,0-1.74,0.783-1.74,1.741v3.352h-4.746v-3.352    c0-0.915-0.696-1.656-1.593-1.733V22.36l10.161-3.282c0.723-0.236,0.8-1.229,0.123-1.568l-11.669-5.843    c-0.564-0.278-1.228,0.132-1.228,0.757v14.613c-0.888,0.078-1.593,0.826-1.593,1.733v3.352h-4.745V28.77    c0-0.959-0.784-1.744-1.742-1.744H8.126c-0.958,0-1.742,0.785-1.742,1.744v3.352v9.464c0,0.461,0.183,0.906,0.514,1.229    l4.075,4.075c0.329,0.33,0.514,0.766,0.514,1.227v43.05c0,0.958,0.783,1.741,1.741,1.741h13.453l0.087-44.791    c0-0.461,0.181-0.904,0.513-1.227l4.075-4.075C31.679,42.5,31.862,42.057,31.862,41.593z M18.749,67.795h-0.872    c-0.723,0-1.306-0.583-1.306-1.306v-6.339c0-1.411,1.141-2.551,2.551-2.551c0.148,0,0.295,0.018,0.435,0.035    c1.202,0.21,2.117,1.244,2.117,2.508v6.339c0,0.723-0.584,1.306-1.308,1.306h-1.617V67.795z"/><path d="M90.34,27.037h-1.611c-0.958,0-1.742,0.783-1.742,1.741v3.352h-4.746v-3.352c0-0.933-0.731-1.69-1.644-1.733V22.37    l10.16-3.284c0.724-0.235,0.802-1.228,0.122-1.566l-11.667-5.843c-0.567-0.278-1.229,0.13-1.229,0.756v14.612    c-0.862,0.105-1.532,0.836-1.532,1.725v3.352h-4.753V28.77c0-0.959-0.785-1.744-1.742-1.744h-1.61    c-0.957,0-1.741,0.785-1.741,1.744v3.352v9.464c0,0.461,0.182,0.906,0.514,1.229l4.075,4.075c0.33,0.33,0.514,0.766,0.514,1.227    l0.085,44.791h13.461c0.959,0,1.741-0.783,1.741-1.741V48.133c0-0.46,0.184-0.906,0.515-1.229l4.074-4.075    c0.331-0.33,0.515-0.767,0.515-1.227V32.13v-3.352C92.081,27.811,91.297,27.037,90.34,27.037z M81.893,66.489    c0,0.723-0.583,1.306-1.306,1.306h-0.871h-1.61c-0.723,0-1.307-0.583-1.307-1.306v-6.339c0-1.262,0.913-2.306,2.117-2.507    c0.14-0.026,0.288-0.034,0.435-0.034c1.41,0,2.551,1.13,2.551,2.55v6.331H81.893z"/><path d="M64.514,52.339c0-0.957-0.783-1.742-1.743-1.742h-6.704c-0.957,0-1.74,0.785-1.74,1.742v3.353h-5.094h-5.094v-3.353    c0-0.957-0.785-1.742-1.741-1.742h-6.705c-0.958,0-1.742,0.785-1.742,1.742l-0.008,3.405l-3.78,0.007v37.164h7.14    c0.957,0,1.743-0.785,1.743-1.742v-8.446c0-5.634,4.563-10.187,10.188-10.187s10.186,4.552,10.186,10.187v8.446    c0,0.957,0.785,1.742,1.743,1.742h6.878V55.752l-3.519-0.007L64.514,52.339z"/></g></g><text x="0" y="115" fill="#000000" font-size="5px" font-weight="bold" font-family="'Helvetica Neue', Helvetica, Arial-Unicode, Arial, Sans-serif">Created by Mint Shirt</text><text x="0" y="120" fill="#000000" font-size="5px" font-weight="bold" font-family="'Helvetica Neue', Helvetica, Arial-Unicode, Arial, Sans-serif">from the Noun Project</text></svg>