<svg xmlns="http://www.w3.org/2000/svg" xmlns:xlink="http://www.w3.org/1999/xlink" version="1.1" x="0px" y="0px" viewBox="-434 236 90 112.5" style="enable-background:new -434 236 90 90;" xml:space="preserve"><style type="text/css">
	.st0{fill:none;stroke:#000000;stroke-miterlimit:10;}
	.st1{stroke:#000000;stroke-miterlimit:10;}
</style><path class="st0" d="M-2957,1731"/><line class="st0" x1="-2956" y1="1731" x2="-2956" y2="1731"/><path class="st1" d="M-413.7,264.1v31c0,0,8.8-8,23.3,0v-31.4C-404.8,255.7-413.7,264.1-413.7,264.1z M-394.5,289.2  c-0.1,0.4-0.5,0.7-0.9,0.7c-0.1,0-0.2,0-0.3-0.1c-6.1-2.1-10.8-1.2-13.7,0c-0.5,0.2-1.1,0-1.3-0.5c-0.2-0.5,0-1.1,0.6-1.3  c3.2-1.3,8.4-2.4,15.1,0C-394.6,288.1-394.3,288.7-394.5,289.2z M-394.5,284.9c-0.1,0.4-0.5,0.7-0.9,0.7c-0.1,0-0.2,0-0.3-0.1  c-6.1-2.1-10.8-1.2-13.7,0c-0.5,0.2-1.1,0-1.3-0.5c-0.2-0.5,0-1.1,0.6-1.3c3.2-1.3,8.4-2.4,15.1,0  C-394.6,283.8-394.3,284.4-394.5,284.9z M-394.5,280.6c-0.1,0.4-0.5,0.7-0.9,0.7c-0.1,0-0.2,0-0.3-0.1c-6.1-2.1-10.8-1.2-13.7,0  c-0.5,0.2-1.1,0-1.3-0.5c-0.2-0.5,0-1.1,0.6-1.3c3.2-1.3,8.4-2.3,15.1,0C-394.6,279.5-394.3,280.1-394.5,280.6z M-394.5,276.3  c-0.1,0.4-0.5,0.7-0.9,0.7c-0.1,0-0.2,0-0.3-0.1c-6.1-2.1-10.8-1.2-13.7,0c-0.5,0.2-1.1,0-1.3-0.6c-0.2-0.5,0-1.1,0.6-1.3  c3.2-1.3,8.4-2.3,15.1,0C-394.6,275.2-394.3,275.8-394.5,276.3z M-394.5,272c-0.1,0.4-0.5,0.7-0.9,0.7c-0.1,0-0.2,0-0.3-0.1  c-6.1-2.1-10.8-1.2-13.7,0c-0.5,0.2-1.1,0-1.3-0.5c-0.2-0.5,0-1.1,0.6-1.3c3.2-1.3,8.4-2.3,15.1,0  C-394.6,270.9-394.3,271.5-394.5,272z M-394.5,267.7c-0.1,0.4-0.5,0.7-0.9,0.7c-0.1,0-0.2,0-0.3-0.1c-6.1-2.1-10.8-1.2-13.7,0  c-0.5,0.2-1.1,0-1.3-0.5c-0.2-0.5,0-1.1,0.6-1.3c3.2-1.3,8.4-2.4,15.1,0C-394.6,266.6-394.3,267.2-394.5,267.7z"/><path class="st1" d="M-364.4,298.9v2c0,0-3.9-3.5-10.8-3.5c-3.3,0-7.4,0.8-12,3.3l-1.9,1.1l-2.4-1.4l0,0c-13.8-7-22.2,0.6-22.2,0.6  v-2c0,0,8.5-7.7,22.5-0.4l2.1,1.1l1.5-0.8C-373.1,291-364.4,298.9-364.4,298.9z"/><path class="st1" d="M-387.7,263.7v31.4c14.5-8,23.3,0,23.3,0v-31C-364.3,264.1-373.3,255.7-387.7,263.7z M-367.5,289.3  c-0.2,0.5-0.8,0.8-1.3,0.5c-2.9-1.2-7.6-2.1-13.7,0c-0.1,0-0.2,0.1-0.3,0.1c-0.4,0-0.8-0.3-0.9-0.7c-0.2-0.5,0.1-1.1,0.6-1.3  c6.7-2.3,11.9-1.3,15.1,0C-367.6,288.2-367.3,288.7-367.5,289.3z M-367.5,285c-0.2,0.5-0.8,0.8-1.3,0.5c-2.9-1.2-7.6-2.1-13.7,0  c-0.1,0-0.2,0.1-0.3,0.1c-0.4,0-0.8-0.3-0.9-0.7c-0.2-0.5,0.1-1.1,0.6-1.3c6.7-2.3,11.9-1.3,15.1,0  C-367.6,283.9-367.3,284.4-367.5,285z M-367.5,280.7c-0.2,0.5-0.8,0.8-1.3,0.5c-2.9-1.2-7.6-2.1-13.7,0c-0.1,0-0.2,0.1-0.3,0.1  c-0.4,0-0.8-0.3-0.9-0.7c-0.2-0.5,0.1-1.1,0.6-1.3c6.7-2.3,11.9-1.3,15.1,0C-367.6,279.6-367.3,280.1-367.5,280.7z M-367.5,276.3  c-0.2,0.5-0.8,0.8-1.3,0.6c-2.9-1.2-7.6-2.1-13.7,0c-0.1,0-0.2,0.1-0.3,0.1c-0.4,0-0.8-0.3-0.9-0.7c-0.2-0.5,0.1-1.1,0.6-1.3  c6.7-2.3,11.9-1.3,15.1,0C-367.6,275.3-367.3,275.8-367.5,276.3z M-367.5,272c-0.2,0.5-0.8,0.8-1.3,0.5c-2.9-1.2-7.6-2.1-13.7,0  c-0.1,0-0.2,0.1-0.3,0.1c-0.4,0-0.8-0.3-0.9-0.7c-0.2-0.5,0.1-1.1,0.6-1.3c6.7-2.3,11.9-1.3,15.1,0  C-367.6,271-367.3,271.5-367.5,272z M-367.5,267.8c-0.2,0.5-0.8,0.8-1.3,0.5c-2.9-1.2-7.6-2.1-13.7,0c-0.1,0-0.2,0.1-0.3,0.1  c-0.4,0-0.8-0.3-0.9-0.7c-0.2-0.5,0.1-1.1,0.6-1.3c6.7-2.3,11.9-1.3,15.1,0C-367.6,266.7-367.3,267.2-367.5,267.8z"/><text x="-434" y="341" fill="#000000" font-size="5px" font-weight="bold" font-family="'Helvetica Neue', Helvetica, Arial-Unicode, Arial, Sans-serif">Created by Vaidehi Bala</text><text x="-434" y="346" fill="#000000" font-size="5px" font-weight="bold" font-family="'Helvetica Neue', Helvetica, Arial-Unicode, Arial, Sans-serif">from the Noun Project</text></svg>