<svg xmlns="http://www.w3.org/2000/svg" xmlns:xlink="http://www.w3.org/1999/xlink" version="1.1" x="0px" y="0px" viewBox="0 0 100 125" style="enable-background:new 0 0 100 100;" xml:space="preserve"><g><path d="M23.8,25.8v48.3c0,1.1,0.9,2,2,2h48.3c1.1,0,2-0.9,2-2V25.8c0-1.1-0.9-2-2-2H25.8C24.7,23.8,23.8,24.7,23.8,25.8z M37.8,34   h13c1.7,0,3.3,0.2,4.7,0.7c1.4,0.5,2.6,1.1,3.6,2c1,0.9,1.8,2,2.3,3.3c0.5,1.3,0.8,2.8,0.8,4.6c0,1.6-0.3,3.1-0.8,4.4   c-0.6,1.3-1.3,2.5-2.3,3.4c-1,0.9-2.1,1.7-3.5,2.2c-1.4,0.5-2.8,0.7-4.5,0.7h-5V66h-8.3V34z"/><path d="M52.8,47.6c0.7-0.7,1-1.7,1-2.8c0-1.2-0.3-2.2-1-2.9c-0.6-0.7-1.6-1.1-2.8-1.1h-4v7.9h4C51.3,48.7,52.2,48.3,52.8,47.6z"/></g><text x="0" y="115" fill="#000000" font-size="5px" font-weight="bold" font-family="'Helvetica Neue', Helvetica, Arial-Unicode, Arial, Sans-serif">Created by Michal Beno</text><text x="0" y="120" fill="#000000" font-size="5px" font-weight="bold" font-family="'Helvetica Neue', Helvetica, Arial-Unicode, Arial, Sans-serif">from the Noun Project</text></svg>