<svg xmlns="http://www.w3.org/2000/svg" data-name="Layer 1" viewBox="0 0 100 125" x="0px" y="0px"><title>Artboard 14</title><path d="M41.82,35.95l10.29-7H63.58a3.83,3.83,0,0,0,3.83-3.83V6.32A3.83,3.83,0,0,0,63.58,2.5H37a3.83,3.83,0,0,0-3.83,3.83V25.14A3.83,3.83,0,0,0,37,29h3.62v6.34A.77.77,0,0,0,41.82,35.95ZM43.08,9.09H57.5a1.45,1.45,0,1,1,0,2.9H43.08a1.45,1.45,0,0,1,0-2.9Zm0,5.19H57.5a1.45,1.45,0,1,1,0,2.9H43.08a1.45,1.45,0,0,1,0-2.9Zm0,5.19H57.5a1.45,1.45,0,1,1,0,2.9H43.08a1.45,1.45,0,0,1,0-2.9Zm52.27,78H4.64V89.39a6.49,6.49,0,0,1,3.68-5.21,30,30,0,0,1,5.39-2,58.24,58.24,0,0,0,8.55-3l.2-.12a2,2,0,0,0,.92-1.7V73.88c-9.1.08-11.78-3.82-11.78-3.82s5.2-.08,4.88-13.8,6-16,8.36-16.88c6.87-2.61,10.32,1.54,10.32,1.54,8-.74,10.15,8,9.18,17.86s4.46,11.44,4.46,11.44C45.05,74,37.18,73.8,37.18,73.8v.88h0v2.63A2,2,0,0,0,38.1,79l.24.15a26,26,0,0,0,3.38,1.4,103,103,0,0,1,10.81-6.63c.36.84,3.84,8.84,6.06,12.23a.18.18,0,0,0,.33,0c.45-1.36,2.19-6.05,4.84-5.73a.18.18,0,0,0,.15-.31c-2-1.59-7.07-5.7-9-8V66.61a13.87,13.87,0,0,1-1.73-4.72c-.66-.05-1.53-1-2.47-4.29-1.2-4.26-.07-5.1,1-5.1-.58-2.49-2.06-11.13,4.38-15.06a3.45,3.45,0,0,1-1.23-2.63s7.33.83,10.89.1,7.37,2.06,8,4.74c0,0,7.2,0,4.4,12.85,1.12,0,2.35.72,1.11,5.09-.94,3.31-1.81,4.24-2.47,4.29a13.87,13.87,0,0,1-1.73,4.72v5.48c-1.93,2.29-7,6.39-9,8a.18.18,0,0,0,.15.31c2.65-.33,4.39,4.37,4.84,5.73a.18.18,0,0,0,.33,0c2.22-3.38,5.7-11.39,6.06-12.23A97.86,97.86,0,0,1,93.17,84.28a6,6,0,0,1,2.18,4.66Z"/><text x="0" y="115" fill="#000000" font-size="5px" font-weight="bold" font-family="'Helvetica Neue', Helvetica, Arial-Unicode, Arial, Sans-serif">Created by Gregor Cresnar</text><text x="0" y="120" fill="#000000" font-size="5px" font-weight="bold" font-family="'Helvetica Neue', Helvetica, Arial-Unicode, Arial, Sans-serif">from the Noun Project</text></svg>