<svg xmlns="http://www.w3.org/2000/svg" xmlns:xlink="http://www.w3.org/1999/xlink" version="1.1" x="0px" y="0px" viewBox="0 0 100 125" enable-background="new 0 0 100 100" xml:space="preserve"><g><path d="M50.4,43.7v-3.2c0-0.2-0.2-0.4-0.4-0.4h0c-0.2,0-0.4,0.2-0.4,0.4v3.6l3,2.1c0.2,0.1,0.5,0.1,0.6-0.1   c0.1-0.2,0.1-0.5-0.1-0.6L50.4,43.7z"/><path d="M91.8,54.1H95l-3.2-6.5l0,0v0H74.3v-2.8L50.5,32.9V30h6.5v-5.4h-6.5v0h-0.8v8.2l-24,12.3v2.5H8.2L5,54.1h3.2v18.2h-1v3.1   h19.9v-2.1h3.1v-19h-4.5v-2.7h4.5h5.4h28.8h5.4h4.6v2.7h-4.6v19H73v2.1h19.8v-3.1h-1V54.1z M17.7,65.4H12V60h5.7V65.4z M26.2,60   v5.4h-5.7V60H26.2z M50,48.7c-2.9,0-5.3-2.4-5.3-5.3c0-2.9,2.4-5.3,5.3-5.3c2.9,0,5.3,2.4,5.3,5.3C55.2,46.3,52.9,48.7,50,48.7z    M79.4,65.4h-5.7V60h5.7V65.4z M87.9,65.4h-5.7V60h5.7V65.4z"/><path d="M35.5,73.2h3.4v2.1h22.1v-2.1h3.3v-19H35.5V73.2z M50.7,58.3h2.9c1.4,0,2.5,1.1,2.5,2.5v12h-5.4V58.3z M43.9,60.8   c0-1.4,1.1-2.5,2.5-2.5H49v14.5h-5.2V60.8z"/></g><text x="0" y="115" fill="#000000" font-size="5px" font-weight="bold" font-family="'Helvetica Neue', Helvetica, Arial-Unicode, Arial, Sans-serif">Created by parkjisun</text><text x="0" y="120" fill="#000000" font-size="5px" font-weight="bold" font-family="'Helvetica Neue', Helvetica, Arial-Unicode, Arial, Sans-serif">from the Noun Project</text></svg>