<?xml version="1.0" encoding="iso-8859-1"?>
<!-- Generator: Adobe Illustrator 19.0.0, SVG Export Plug-In . SVG Version: 6.00 Build 0)  -->
<svg version="1.1" id="Layer_1" xmlns="http://www.w3.org/2000/svg" xmlns:xlink="http://www.w3.org/1999/xlink" x="0px" y="0px"
	 viewBox="0 0 512 512" style="enable-background:new 0 0 512 512;" xml:space="preserve">
<g>
	<g>
		<path d="M331.855,119.989V68.953L256,25.156l-75.855,43.796v51.037H16.021V512h198.603V374.172h82.751v137.826h198.603v-392.01
			H331.855z M156.698,444.761H73.947V231.17c0-22.852,18.525-41.376,41.376-41.376c22.851,0,41.376,18.524,41.376,41.376V444.761z
			 M255.999,70.34c18.37,0,33.261,14.89,33.261,33.26s-14.891,33.261-33.261,33.261s-33.261-14.891-33.261-33.261
			S237.63,70.34,255.999,70.34z M297.375,322.45h-82.751v-91.28c0-22.852,18.525-41.376,41.376-41.376
			c22.851,0,41.376,18.524,41.376,41.376V322.45z M438.052,444.76h-82.751V231.17c0-22.852,18.525-41.376,41.376-41.376
			c22.851,0,41.376,18.524,41.376,41.376V444.76z"/>
	</g>
</g>
<g>
	<g>
		<polygon points="482.27,0 299.572,0 274.489,0 362.887,51.037 362.887,88.958 475.815,88.958 495.978,88.958 508.131,88.958 		"/>
	</g>
</g>
<g>
	<g>
		<polygon points="212.428,0 29.729,0 3.869,88.958 16.021,88.958 36.185,88.958 149.113,88.958 149.113,51.037 237.51,0 		"/>
	</g>
</g>
<g>
</g>
<g>
</g>
<g>
</g>
<g>
</g>
<g>
</g>
<g>
</g>
<g>
</g>
<g>
</g>
<g>
</g>
<g>
</g>
<g>
</g>
<g>
</g>
<g>
</g>
<g>
</g>
<g>
</g>
</svg>
