<svg xmlns="http://www.w3.org/2000/svg" xmlns:xlink="http://www.w3.org/1999/xlink" version="1.1" x="0px" y="0px" viewBox="0 0 100 125" enable-background="new 0 0 100 100" xml:space="preserve"><g><path d="M63.654,31.709H38.297v2.742h3.587v2.152h-3.587v2.672h3.587v2.152h-3.587V44.1h3.587v2.151h-3.587v2.672h3.587v2.152   h-3.587v2.673h3.587V55.9h-3.587v2.672h3.587v2.152h-3.587v2.672h3.587v2.152h-3.587v2.742h25.357c0.867,0,1.573-0.706,1.573-1.574   V33.283C65.227,32.415,64.522,31.709,63.654,31.709z"/><path d="M10,10v80h80V10H10z M67.379,66.717c0,2.054-1.67,3.726-3.725,3.726H36.145v-4.894h-3.524v-2.152h3.524v-2.672h-3.524   v-2.152h3.524V55.9h-3.524v-2.152h3.524v-2.672h-3.524v-2.152h3.524v-2.672h-3.524V44.1h3.524v-2.673h-3.524v-2.152h3.524v-2.672   h-3.524v-2.152h3.524v-4.894h27.509c2.054,0,3.725,1.672,3.725,3.727V66.717z"/></g><text x="0" y="115" fill="#000000" font-size="5px" font-weight="bold" font-family="'Helvetica Neue', Helvetica, Arial-Unicode, Arial, Sans-serif">Created by Juan Pablo Bravo</text><text x="0" y="120" fill="#000000" font-size="5px" font-weight="bold" font-family="'Helvetica Neue', Helvetica, Arial-Unicode, Arial, Sans-serif">from the Noun Project</text></svg>