<svg xmlns="http://www.w3.org/2000/svg" xmlns:xlink="http://www.w3.org/1999/xlink" version="1.1" x="0px" y="0px" viewBox="0 0 100 125" enable-background="new 0 0 100 100" xml:space="preserve"><path d="M50,5C25.19,5,5,25.19,5,50s20.19,45,45,45s45-20.19,45-45S74.81,5,50,5z M92.61,42.72l-2.76,4.78H73.38l-8.24-14.26  l8.24-14.27h6.69C86.52,25.23,91.04,33.48,92.61,42.72z M20.92,77.8l-8.23-14.27l8.23-14.26h16.47l8.24,14.26L37.39,77.8H20.92z   M50,6.76c1.82,0,3.62,0.13,5.38,0.35c4.24,0.53,8.29,1.67,12.06,3.34l4.41,7.64l-8.23,14.27h-8.24h-8.22l-8.24-14.27l6.39-11.07  C46.85,6.86,48.42,6.76,50,6.76z M20.92,18.97h16.47l8.24,14.27L37.39,47.5H20.92l-8.23-14.26L20.92,18.97z M17.22,21.86l-6.06,10.5  h-0.62C12.26,28.53,14.52,25,17.22,21.86z M18.74,79.82c-4.17-4.37-7.44-9.6-9.5-15.41h1.92l8.23,14.27L18.74,79.82z M55.38,92.89  c-0.14,0.02-0.29,0.04-0.43,0.05c-1.63,0.19-3.28,0.3-4.95,0.3c-0.9,0-1.79-0.04-2.68-0.1l-0.16-0.2l-8.24-14.26l8.24-14.27h8.22  h8.24l8.23,14.27L65,90.55C61.94,91.68,58.72,92.47,55.38,92.89z M91.05,63.53c-1.74,5.28-4.47,10.11-7.97,14.27h-9.7l-8.24-14.27  l8.24-14.26h16.47l3.13,5.41C92.65,57.74,91.99,60.7,91.05,63.53z"/><text x="0" y="115" fill="#000000" font-size="5px" font-weight="bold" font-family="'Helvetica Neue', Helvetica, Arial-Unicode, Arial, Sans-serif">Created by Maxim Kulikov</text><text x="0" y="120" fill="#000000" font-size="5px" font-weight="bold" font-family="'Helvetica Neue', Helvetica, Arial-Unicode, Arial, Sans-serif">from the Noun Project</text></svg>