<svg xmlns="http://www.w3.org/2000/svg" xmlns:xlink="http://www.w3.org/1999/xlink" version="1.1" x="0px" y="0px" viewBox="0 0 100 125" style="enable-background:new 0 0 100 100;" xml:space="preserve"><path d="M50,2C23.6,2,2,23.6,2,50s21.6,48,48,48s48-21.6,48-48S76.4,2,50,2z M50.1,43.1l1.8-3.1L58,29.1c1.1-2,3.6-2.6,5.5-1.6  c1,0.5,1.7,1.4,1.9,2.4c0.3,1.1,0.2,2.2-0.4,3.1l-6.5,11.3l11.8,7.2c0.4,0.2,0.5,0.7,0.4,1.1c-0.2,0.4-0.6,0.6-1,0.6  c-2.5-0.5-5.3-0.6-7.8-0.3c-3.3,0.4-6.7,1.5-10.3,3.1c-1.5,0.7-3.1,1.6-4.4,2.4L47,58.6c-1.5,0.9-2.8,1.6-4.1,2.2  c-0.1,0.1-0.3,0.1-0.4,0.1c-0.2,0-0.5-0.1-0.6-0.3c-0.3-0.3-0.3-0.7-0.2-1L50.1,43.1z M31.9,42.2c2.2-3.7,6.9-5,10.6-2.9  c1.8,1,3,2.7,3.6,4.7c0.6,2,0.3,4.1-0.8,5.9c-1,1.8-2.7,3.1-4.7,3.6c-0.7,0.2-1.4,0.3-2.1,0.3c-1.4,0-2.6-0.4-3.8-1  c-1.8-1-3.1-2.7-3.6-4.7C30.6,46,30.9,43.9,31.9,42.2z M82.3,68.4c-0.1,0-0.2,0.1-0.3,0.1c-0.3,0-0.5-0.1-0.7-0.3  c-3.5-4.7-7.8-7.7-12.1-8.4c-3.9-0.7-8.2,0.1-13.6,2.6c-1.2,0.5-2.2,1.1-3.4,1.8L52,64.3c-1.3,0.6-2.7,1.4-4.2,2  c-2.4,1-5.8,2.1-9.6,2.1c-2.1,0-3.9-0.3-5.5-1c-1.9-0.8-3.5-2.1-4.6-3.6c-1.9-2.8-2.4-6.4-1.6-9.8c0.1-0.4,0.4-0.7,0.8-0.7  c0.4,0,0.7,0.2,0.9,0.6c0.6,2.1,1.8,4.9,3.7,6.3c1.5,1.1,3.1,1.3,5.6,0.8c0.5-0.1,0.9,0.2,1,0.7c0.1,0.5-0.2,0.9-0.7,1  c-1.9,0.4-4.5,0.6-7-1.1c-1.3-1-2.4-2.4-3-3.8c0.1,1.8,0.7,3.5,1.7,5.1c0.9,1.3,2.3,2.4,3.8,3c1.4,0.6,3,0.9,4.8,0.9  c3.5,0,6.7-1.1,9-2c1.5-0.6,2.8-1.3,4.1-1.9l0.1-0.1c1.3-0.7,2.3-1.3,3.5-1.8c5.8-2.7,10.4-3.6,14.7-2.8c3.7,0.6,7.5,2.8,10.9,6.4  c-0.6-1.6-1.4-3-2.4-4.6s-2.5-2.9-4.2-4c-0.4-0.3-0.5-0.8-0.2-1.2c0.3-0.4,0.8-0.5,1.2-0.2c1.8,1.2,3.4,2.7,4.6,4.4  c2.1,2.8,3.2,5.8,3.5,8.7C82.8,67.9,82.6,68.2,82.3,68.4z"/><text x="0" y="115" fill="#000000" font-size="5px" font-weight="bold" font-family="'Helvetica Neue', Helvetica, Arial-Unicode, Arial, Sans-serif">Created by Harsha Rai</text><text x="0" y="120" fill="#000000" font-size="5px" font-weight="bold" font-family="'Helvetica Neue', Helvetica, Arial-Unicode, Arial, Sans-serif">from the Noun Project</text></svg>