<svg xmlns="http://www.w3.org/2000/svg" xmlns:xlink="http://www.w3.org/1999/xlink" version="1.1" x="0px" y="0px" viewBox="0 0 100 125" enable-background="new 0 0 100 100" xml:space="preserve"><path d="M83.51,32.551l-3.551-3.52l-4.303,4.34l-2.84-2.816l5.633-5.681l-3.551-3.521l-5.633,5.682l-2.84-2.815l4.303-4.34  l-3.551-3.521l-4.303,4.34l-4.262-4.225l-3.52,3.551l4.26,4.225l-2.816,2.84l-5.682-5.632l-3.52,3.552l5.682,5.632l-2.816,2.84  l-4.262-4.225l-3.52,3.552l4.262,4.225l-4.303,4.339l3.549,3.521l4.303-4.34l2.842,2.815l-5.633,5.682l3.551,3.521l5.633-5.682  l2.842,2.818l-4.301,4.338l3.551,3.521l4.301-4.339l4.262,4.224l3.52-3.552l-4.26-4.223l2.814-2.842l5.682,5.632l3.52-3.552  l-5.68-5.631l2.814-2.841l4.262,4.225l3.52-3.552l-4.262-4.224L83.51,32.551z M62.904,27.77l2.842,2.816l-2.816,2.84l-2.84-2.815  L62.904,27.77z M53.752,37.002l2.816-2.84l2.84,2.814l-2.816,2.841L53.752,37.002z M62.986,46.156l-2.844-2.817l2.816-2.841  l2.842,2.817L62.986,46.156z M69.322,39.763l-2.842-2.816l2.816-2.841l2.84,2.817L69.322,39.763z"/><path d="M93.709,33.42c0-3.672-0.621-7.273-1.912-10.625c-1.289-3.35-3.256-6.446-5.895-9.061c-2.604-2.584-5.672-4.508-8.982-5.768  c-3.314-1.264-6.867-1.869-10.488-1.869C56.699,6.11,46.449,10.426,38.395,18.54c-7.967,8.046-12.189,18.215-12.199,27.862  c0,2.211,0.229,4.396,0.689,6.515l-5.58,18.802L6.291,86.862l7.102,7.04L28.375,78.79l18.348-5.809  c2.193,0.498,4.457,0.743,6.75,0.743c9.73-0.012,19.98-4.327,28.035-12.44h0.002C89.475,53.235,93.697,43.067,93.709,33.42z   M31.24,62.846c0.82,1.144,1.738,2.229,2.76,3.242c0.967,0.959,1.998,1.826,3.08,2.604l-8.359,2.646L31.24,62.846z M76.537,56.356  L76.537,56.356c-6.814,6.887-15.432,10.379-23.064,10.367c-2.844,0-5.545-0.475-7.996-1.409c-2.453-0.937-4.658-2.323-6.549-4.196  c-1.914-1.9-3.332-4.124-4.289-6.606c-0.957-2.481-1.443-5.224-1.443-8.109c-0.012-7.579,3.408-16.126,10.17-22.935  c6.814-6.887,15.432-10.381,23.066-10.369c2.842,0,5.543,0.476,7.994,1.41c2.453,0.936,4.656,2.322,6.547,4.197  c1.916,1.9,3.334,4.124,4.293,6.606c0.955,2.48,1.443,5.222,1.443,8.108C86.719,40.999,83.299,49.543,76.537,56.356z"/><text x="0" y="115" fill="#000000" font-size="5px" font-weight="bold" font-family="'Helvetica Neue', Helvetica, Arial-Unicode, Arial, Sans-serif">Created by Tomas Knopp</text><text x="0" y="120" fill="#000000" font-size="5px" font-weight="bold" font-family="'Helvetica Neue', Helvetica, Arial-Unicode, Arial, Sans-serif">from the Noun Project</text></svg>