<svg xmlns="http://www.w3.org/2000/svg" xmlns:xlink="http://www.w3.org/1999/xlink" xmlns:a="http://ns.adobe.com/AdobeSVGViewerExtensions/3.0/" version="1.1" x="0px" y="0px" viewBox="-1.284 -1.594 100 125" overflow="visible" enable-background="new -1.284 -1.594 100 100" xml:space="preserve"><path d="M91.661,5.24c-8.292-8.292-23.913-6.115-34.892,4.864c-10.979,10.979-13.157,26.601-4.864,34.893  c8.291,8.292,23.914,6.114,34.893-4.865C97.776,29.154,99.954,13.532,91.661,5.24z M54.782,42.108  c-6.893-6.892-4.889-20.071,4.476-29.436C68.621,3.309,81.8,1.305,88.693,8.197c6.893,6.893,4.889,20.071-4.476,29.435  C74.853,46.997,61.674,49.001,54.782,42.108z"/><polygon points="7.413,95.626 7.206,95.419 28.748,73.879 35.17,66.567 30.204,61.6 22.997,68.126 1.456,89.669 1.258,89.47   0,88.899 0.572,90.158 6.727,96.312 7.984,96.882 "/><rect x="79.818" y="9.118" transform="matrix(0.7071 0.7072 -0.7072 0.7071 32.231 -58.9622)" width="14.929" height="0.607"/><rect x="74.996" y="11.178" transform="matrix(0.7071 0.7071 -0.7071 0.7071 33.2271 -57.2605)" width="21.484" height="0.607"/><rect x="70.766" y="12.98" transform="matrix(0.7071 0.7071 -0.7071 0.7071 33.9785 -55.4614)" width="26.338" height="0.606"/><rect x="67.799" y="14.783" transform="matrix(0.7071 0.7071 -0.7071 0.7071 34.7745 -53.7799)" width="29.01" height="0.607"/><rect x="64.194" y="16.37" transform="matrix(0.7071 0.7071 -0.7071 0.7071 35.3556 -52.0092)" width="32.53" height="0.606"/><rect x="60.939" y="18.043" transform="matrix(0.7071 0.7071 -0.7071 0.7071 35.9228 -50.0326)" width="34.836" height="0.608"/><rect x="58.965" y="20.018" transform="matrix(0.7071 0.7071 -0.7071 0.7071 36.742 -48.0588)" width="34.835" height="0.608"/><rect x="56.591" y="22.593" transform="matrix(0.7071 0.7071 -0.7071 0.7071 38.0093 -45.9692)" width="35.806" height="0.607"/><rect x="53.77" y="24.781" transform="matrix(0.7071 0.7071 -0.7071 0.7071 38.888 -43.7187)" width="36.898" height="0.607"/><rect x="51.368" y="26.498" transform="matrix(0.7071 0.7071 -0.7071 0.7071 39.4019 -41.5187)" width="36.898" height="0.607"/><rect x="49.994" y="29.244" transform="matrix(0.7071 0.7071 -0.7071 0.7071 40.9406 -39.7427)" width="36.898" height="0.606"/><rect x="47.762" y="31.476" transform="matrix(0.7071 0.7071 -0.7071 0.7071 41.8654 -37.5111)" width="36.899" height="0.605"/><rect x="45.015" y="32.849" transform="matrix(0.7071 0.7071 -0.7071 0.7071 42.0302 -35.166)" width="36.899" height="0.607"/><rect x="45.262" y="35.252" transform="matrix(0.7071 0.7071 -0.7071 0.7071 43.1258 -33.006)" width="32.286" height="0.606"/><rect x="43.431" y="37.74" transform="matrix(0.7071 0.7071 -0.7071 0.7071 44.2072 -30.6389)" width="31.316" height="0.608"/><rect x="44.374" y="14.353" transform="matrix(-0.7071 0.7071 -0.7071 -0.7071 115.8491 -18.6719)" width="34.835" height="0.607"/><rect x="43.58" y="16.627" transform="matrix(-0.7071 0.7071 -0.7071 -0.7071 119.7277 -15.7318)" width="39.084" height="0.608"/><rect x="43.766" y="18.044" transform="matrix(-0.7071 0.7071 -0.7071 -0.7071 124.4663 -14.8613)" width="43.089" height="0.607"/><rect x="43.42" y="20.276" transform="matrix(-0.7071 0.7071 -0.7071 -0.7071 128.974 -12.2656)" width="47.215" height="0.606"/><rect x="44.925" y="22.121" transform="matrix(-0.7071 0.7071 -0.7071 -0.7071 133.5746 -10.4791)" width="48.066" height="0.607"/><rect x="45.908" y="23.75" transform="matrix(-0.7071 0.7071 -0.7071 -0.7071 138.6846 -9.3362)" width="50.735" height="0.608"/><rect x="48.094" y="26.24" transform="matrix(-0.7071 0.7071 -0.7071 -0.7071 142.9349 -6.1175)" width="49.28" height="0.607"/><rect x="50.795" y="27.913" transform="matrix(-0.7071 0.7071 -0.7071 -0.7071 148.0008 -4.8711)" width="48.428" height="0.607"/><rect x="53.896" y="29.802" transform="matrix(-0.7071 0.7071 -0.7071 -0.7071 152.5591 -2.9811)" width="46.002" height="0.608"/><rect x="56.405" y="31.605" transform="matrix(-0.7071 0.7071 -0.7071 -0.7071 157.4965 -1.4208)" width="45.274" height="0.607"/><rect x="59.532" y="33.793" transform="matrix(-0.7071 0.7071 -0.7071 -0.7071 161.1683 1.4343)" width="41.511" height="0.606"/><rect x="65.547" y="35.853" transform="matrix(-0.7071 0.7071 -0.7071 -0.7071 165.8483 3.6159)" width="33.257" height="0.607"/><path d="M86.419,40.228l-2.487-2.314c0,0-4.916,6.505-12.577,8.438c-2.47,0.623-5.228,0.667-7.755,0.278  c-5.017-0.772-8.849-4.134-8.849-4.134s-0.921-0.64-1.833-2.171c-0.604-1.014-1.228-2.349-1.614-4.002  c-0.673-2.886-0.98-6.4-0.363-9.687c1.458-7.77,8.019-13.695,8.019-13.695l-2.512-2.51c0,0-1.55,1.279-3.339,3.614  c-0.951,1.24-1.916,2.725-2.77,4.492c-0.524,1.089-1.043,2.267-1.502,3.516c-2.895,7.856-5.731,18.305-9.212,26.365  c-3.488,8.076-9.438,13.208-9.438,13.208l4.973,4.93c0,0,5.12-5.938,13.195-9.427c8.062-3.483,18.505-6.313,26.36-9.207  c1.249-0.46,2.426-0.974,3.514-1.5c1.767-0.853,3.293-1.859,4.533-2.811C85.098,41.819,86.419,40.228,86.419,40.228z M39.949,57.254  l7.596-20.369L58.959,48.3L39.949,57.254z"/><path d="M91.754,5.035C83.463-3.258,67.841-1.08,56.862,9.899C45.884,20.877,43.705,36.5,51.999,44.791  c8.292,8.293,23.913,6.115,34.892-4.864C97.869,28.949,100.047,13.326,91.754,5.035z M54.875,41.903  c-6.892-6.893-4.889-20.072,4.475-29.436C68.716,3.103,81.895,1.1,88.785,7.992c6.894,6.892,4.89,20.07-4.476,29.435  C74.945,46.792,61.768,48.795,54.875,41.903z"/><text x="-1.284" y="113.406" fill="#000000" font-size="5px" font-weight="bold" font-family="'Helvetica Neue', Helvetica, Arial-Unicode, Arial, Sans-serif">Created by Matthew Clarke</text><text x="-1.284" y="118.406" fill="#000000" font-size="5px" font-weight="bold" font-family="'Helvetica Neue', Helvetica, Arial-Unicode, Arial, Sans-serif">from the Noun Project</text></svg>