<svg xmlns="http://www.w3.org/2000/svg" xmlns:xlink="http://www.w3.org/1999/xlink" version="1.1" x="0px" y="0px" viewBox="0 0 100 125" enable-background="new 0 0 100 100" xml:space="preserve"><g><polygon fill="#000000" points="79.155,16.127 79.156,16.13 79.157,16.13  "/><path fill="#000000" d="M96.653,46.434L79.156,16.13c-5.38,6.292-11.903,11.792-19.481,16.167c-3.153,1.82-6.385,3.385-9.669,4.701   c-3.288-1.316-6.523-2.877-9.68-4.7c-7.577-4.375-14.101-9.874-19.481-16.166l0.001-0.004L3.348,46.436   c-6.891,11.935-2.801,27.198,9.135,34.088c11.936,6.892,27.198,2.803,34.089-9.134l3.43-5.939l3.429,5.938   c6.891,11.936,22.153,16.025,34.089,9.134C99.454,73.633,103.544,58.37,96.653,46.434z M73.648,35.703   c2.983-1.723,6.799-0.7,8.521,2.283c0.365,0.633,0.601,1.303,0.726,1.982c-1.953-1.669-4.816-2.021-7.168-0.663   c-2.352,1.357-3.478,4.014-3.01,6.539c-0.525-0.448-0.988-0.986-1.354-1.619C69.642,41.241,70.664,37.425,73.648,35.703z    M19.911,34.385c0.364-0.633,0.827-1.17,1.354-1.619c-0.469,2.525,0.657,5.182,3.009,6.54c2.352,1.357,5.216,1.004,7.168-0.664   c-0.125,0.68-0.36,1.35-0.726,1.982c-1.723,2.983-5.538,4.006-8.521,2.283C19.21,41.185,18.188,37.37,19.911,34.385z    M35.766,65.151c-3.446,5.968-11.077,8.014-17.045,4.567c-5.968-3.445-8.013-11.077-4.567-17.045   c0.73-1.265,1.657-2.341,2.708-3.239c-0.937,5.051,1.316,10.364,6.019,13.079c4.702,2.716,10.431,2.01,14.337-1.327   C36.965,62.546,36.495,63.887,35.766,65.151z M40.204,53.306c-2.984-1.724-4.007-5.539-2.283-8.522   c0.364-0.633,0.828-1.171,1.354-1.619c-0.469,2.524,0.658,5.182,3.009,6.539c2.352,1.357,5.216,1.005,7.168-0.663   c-0.125,0.679-0.36,1.35-0.726,1.981C47.004,54.006,43.188,55.028,40.204,53.306z M57.718,49.703   c-2.352,1.357-3.479,4.014-3.01,6.54c-0.525-0.449-0.989-0.987-1.354-1.62c-1.722-2.983-0.7-6.798,2.284-8.521   c2.984-1.724,6.8-0.7,8.522,2.283c0.365,0.632,0.6,1.303,0.726,1.981C62.933,48.698,60.068,48.345,57.718,49.703z M77.12,62.514   c-4.703,2.715-6.955,8.028-6.018,13.08c-1.052-0.897-1.979-1.975-2.709-3.239c-3.445-5.968-1.4-13.6,4.567-17.045   s13.599-1.4,17.044,4.566c0.73,1.266,1.2,2.607,1.452,3.967C87.551,60.505,81.823,59.799,77.12,62.514z"/></g><text x="0" y="115" fill="#000000" font-size="5px" font-weight="bold" font-family="'Helvetica Neue', Helvetica, Arial-Unicode, Arial, Sans-serif">Created by Márcio Duarte</text><text x="0" y="120" fill="#000000" font-size="5px" font-weight="bold" font-family="'Helvetica Neue', Helvetica, Arial-Unicode, Arial, Sans-serif">from the Noun Project</text></svg>